<svg width="72" height="68" viewBox="0 0 72 68" fill="none" xmlns="http://www.w3.org/2000/svg">
<path fill-rule="evenodd" clip-rule="evenodd" d="M5 0C2.23858 0 0 2.23858 0 5V48.7325C0 51.4939 2.23858 53.7325 5 53.7325H36.9769C38.4233 53.7325 39.7988 54.3588 40.7484 55.4498L49.4328 65.4277C51.7803 68.1248 56.1177 67.5577 57.693 64.3478L61.5296 56.5297C62.3699 54.8175 64.111 53.7325 66.0183 53.7325H66.4288C69.1902 53.7325 71.4288 51.4939 71.4288 48.7324V5C71.4288 2.23858 69.1902 0 66.4288 0H5ZM15.7658 31.8534C18.7867 31.8534 21.2356 29.4045 21.2356 26.3836C21.2356 23.3627 18.7867 20.9138 15.7658 20.9138C12.7449 20.9138 10.296 23.3627 10.296 26.3836C10.296 29.4045 12.7449 31.8534 15.7658 31.8534ZM41.1842 26.3836C41.1842 29.4045 38.7353 31.8534 35.7144 31.8534C32.6936 31.8534 30.2447 29.4045 30.2447 26.3836C30.2447 23.3627 32.6936 20.9138 35.7144 20.9138C38.7353 20.9138 41.1842 23.3627 41.1842 26.3836ZM55.6631 31.8534C58.6839 31.8534 61.1328 29.4045 61.1328 26.3836C61.1328 23.3627 58.6839 20.9138 55.6631 20.9138C52.6422 20.9138 50.1933 23.3627 50.1933 26.3836C50.1933 29.4045 52.6422 31.8534 55.6631 31.8534Z" fill="#C4C4C4"/>
</svg>
